# xmcd CD database file
#
# Track frame offsets:
#	150
#	13872
#	26518
#	41717
#	60489
#	73232
#	87049
#	102749
#	134054
#	151731
#	163027
#	183307
#	198288
#
# Disc length: 2820 seconds
#
# Revision: 0
# Processed by: cddbd v1.5.2PL0 Copyright (c) Steve Scherf et al.
# Submitted via: CDex 1.51
#
DISCID=b10b020d
DTITLE=Moot Davis - Man About Town
DYEAR=2012
DGENRE=Country
TTITLE0=Rags To Rhinestones
TTITLE1=Day The World Shook My Hand
TTITLE2=Rocket
TTITLE3=Fade To Gold
TTITLE4=Queensbury Rules
TTITLE5=Crazy In Love With You
TTITLE6=How Long
TTITLE7=Black and White Picture
TTITLE8=Rust
TTITLE9=Only You
TTITLE10=Memory Lane
TTITLE11=Everybody's Gal
TTITLE12=Man About Town
EXTD=YEAR: 2012
EXTT0=
EXTT1=
EXTT2=
EXTT3=
EXTT4=
EXTT5=
EXTT6=
EXTT7=
EXTT8=
EXTT9=
EXTT10=
EXTT11=
EXTT12=
PLAYORDER=
